<svg width="32" height="32" viewBox="0 0 32 32" fill="none" xmlns="http://www.w3.org/2000/svg">
<path d="M22.4827 5.98266L26 9.49999M24 18.6667V25C24 25.7956 23.6839 26.5587 23.1213 27.1213C22.5587 27.6839 21.7956 28 21 28H7C6.20435 28 5.44129 27.6839 4.87868 27.1213C4.31607 26.5587 4 25.7956 4 25V11C4 10.2043 4.31607 9.44128 4.87868 8.87867C5.44129 8.31606 6.20435 7.99999 7 7.99999H13.3333M22.4827 5.98266L24.732 3.73199C25.2009 3.26309 25.8369 2.99966 26.5 2.99966C27.1631 2.99966 27.7991 3.26309 28.268 3.73199C28.7369 4.2009 29.0003 4.83687 29.0003 5.49999C29.0003 6.16312 28.7369 6.79909 28.268 7.26799L14.1093 21.4267C13.4044 22.1311 12.5352 22.649 11.58 22.9333L8 24L9.06667 20.42C9.35104 19.4648 9.86885 18.5956 10.5733 17.8907L22.4827 5.98266V5.98266Z" stroke="white" stroke-width="2" stroke-linecap="round" stroke-linejoin="round"/>
</svg>
