<svg width="32" height="32" viewBox="0 0 32 32" fill="none" xmlns="http://www.w3.org/2000/svg">
<path d="M24.7188 16.6406C25.1458 17.3906 25.4635 18.1719 25.6719 18.9844C25.8802 19.7969 25.9896 20.6354 26 21.5V23.1094L16 28.125L6 23.1094C6 22.4844 6.00521 21.901 6.01562 21.3594C6.02604 20.8177 6.07292 20.2917 6.15625 19.7812C6.23958 19.2708 6.36458 18.7604 6.53125 18.25C6.69792 17.7396 6.94792 17.2031 7.28125 16.6406L4 15V24.1719C4.30208 24.276 4.57292 24.4219 4.8125 24.6094C5.05208 24.7969 5.26562 25.0156 5.45312 25.2656C5.64062 25.5156 5.77604 25.7865 5.85938 26.0781C5.94271 26.3698 5.98958 26.6771 6 27V32H0V27C0 26.6875 0.046875 26.3854 0.140625 26.0938C0.234375 25.8021 0.369792 25.526 0.546875 25.2656C0.723958 25.0052 0.932292 24.7865 1.17188 24.6094C1.41146 24.4323 1.6875 24.2865 2 24.1719V14L0 13L16 5L32 13L24.7188 16.6406ZM4 27C4 26.7292 3.90104 26.4948 3.70312 26.2969C3.50521 26.099 3.27083 26 3 26C2.72917 26 2.49479 26.099 2.29688 26.2969C2.09896 26.4948 2 26.7292 2 27V30H4V27ZM4.46875 13L16 18.7656L27.5312 13L16 7.23438L4.46875 13ZM24 21.875C24 21.0729 23.9219 20.3281 23.7656 19.6406C23.6094 18.9531 23.3333 18.25 22.9375 17.5312L16 21L9.0625 17.5312C8.71875 18.1354 8.45833 18.7708 8.28125 19.4375C8.10417 20.1042 8.01042 20.7917 8 21.5V21.875L16 25.875L24 21.875Z" fill="white"/>
</svg>
