<svg width="32" height="32" viewBox="0 0 32 32" fill="none" xmlns="http://www.w3.org/2000/svg">
<path d="M16 2C13.2311 2 10.5243 2.82109 8.22202 4.35943C5.91973 5.89777 4.12532 8.08427 3.06569 10.6424C2.00607 13.2006 1.72882 16.0155 2.26901 18.7313C2.80921 21.447 4.14258 23.9416 6.10051 25.8995C8.05845 27.8574 10.553 29.1908 13.2687 29.731C15.9845 30.2712 18.7994 29.9939 21.3576 28.9343C23.9157 27.8747 26.1022 26.0803 27.6406 23.778C29.1789 21.4757 30 18.7689 30 16C29.9958 12.2883 28.5194 8.72977 25.8948 6.10518C23.2702 3.48059 19.7117 2.00423 16 2V2ZM4.00001 16C4.0016 14.0982 4.45591 12.2241 5.32535 10.5327C6.1948 8.84127 7.4544 7.38112 9.00001 6.273V9C9.00001 9.26522 9.10536 9.51957 9.2929 9.70711C9.48044 9.89464 9.73479 10 10 10H13.382C13.5677 9.9999 13.7496 9.94812 13.9075 9.85045C14.0654 9.75278 14.193 9.61308 14.276 9.447L15 8H19V14H13.236C13.0809 13.9999 12.9278 14.0358 12.789 14.105L9.55301 15.724C9.38693 15.807 9.24723 15.9346 9.14956 16.0925C9.05189 16.2504 9.00011 16.4323 9.00001 16.618V20.323C8.99993 20.523 9.05983 20.7184 9.17195 20.884C9.28408 21.0496 9.44329 21.1778 9.62901 21.252L14 23L14.824 27.94C11.861 27.6448 9.11318 26.26 7.11329 24.0539C5.11339 21.8478 4.00393 18.9777 4.00001 16V16ZM22 26.376V23L23.755 20.368C23.8322 20.2521 23.8843 20.1213 23.9081 19.9841C23.9319 19.8468 23.9267 19.7061 23.893 19.571L23 16V13H27.605C28.2752 15.5356 28.089 18.2215 27.0754 20.6404C26.0618 23.0593 24.2776 25.0756 22 26.376V26.376Z" fill="white"/>
</svg>
