<svg width="174" height="30" viewBox="0 0 174 30" fill="none" xmlns="http://www.w3.org/2000/svg">
<path d="M0.944983 23C0.71765 23 0.53165 22.9277 0.386983 22.783C0.242316 22.6383 0.169983 22.4523 0.169983 22.225V2.075C0.169983 1.84766 0.242316 1.66166 0.386983 1.517C0.53165 1.37233 0.71765 1.29999 0.944983 1.29999H5.03698C5.24365 1.29999 5.41932 1.37233 5.56398 1.517C5.72932 1.66166 5.81198 1.84766 5.81198 2.075V18.319H15.174C15.4013 18.319 15.5873 18.4017 15.732 18.567C15.8973 18.7117 15.98 18.8977 15.98 19.125V22.225C15.98 22.4523 15.8973 22.6383 15.732 22.783C15.5873 22.9277 15.4013 23 15.174 23H0.944983Z" fill="url(#paint0_linear_9_5)"/>
<path d="M19.1011 23C18.8737 23 18.6877 22.9277 18.5431 22.783C18.3984 22.6383 18.3261 22.4523 18.3261 22.225V7.655C18.3261 7.42766 18.3984 7.24166 18.5431 7.097C18.6877 6.95233 18.8737 6.88 19.1011 6.88H22.7591C22.9657 6.88 23.1414 6.95233 23.2861 7.097C23.4514 7.24166 23.5341 7.42766 23.5341 7.655V22.225C23.5341 22.4523 23.4514 22.6383 23.2861 22.783C23.1414 22.9277 22.9657 23 22.7591 23H19.1011ZM19.0701 4.555C18.8427 4.555 18.6567 4.48266 18.5121 4.338C18.3674 4.19333 18.2951 4.00733 18.2951 3.78V1.021C18.2951 0.793662 18.3674 0.607662 18.5121 0.462995C18.6567 0.297663 18.8427 0.214996 19.0701 0.214996H22.7591C22.9864 0.214996 23.1724 0.297663 23.3171 0.462995C23.4824 0.607662 23.5651 0.793662 23.5651 1.021V3.78C23.5651 4.00733 23.4824 4.19333 23.3171 4.338C23.1724 4.48266 22.9864 4.555 22.7591 4.555H19.0701Z" fill="url(#paint1_linear_9_5)"/>
<path d="M28.9096 23C28.6823 23 28.4963 22.9277 28.3516 22.783C28.207 22.6383 28.1346 22.4523 28.1346 22.225V7.655C28.1346 7.42766 28.207 7.24166 28.3516 7.097C28.4963 6.95233 28.6823 6.88 28.9096 6.88H32.4746C32.702 6.88 32.888 6.95233 33.0326 7.097C33.1773 7.24166 33.2496 7.42766 33.2496 7.655V8.833C33.787 8.19233 34.4897 7.655 35.3577 7.221C36.2257 6.787 37.2486 6.57 38.4267 6.57C39.6253 6.57 40.6793 6.83866 41.5886 7.376C42.5186 7.91333 43.242 8.709 43.7586 9.763C44.296 10.7963 44.5647 12.0673 44.5647 13.576V22.225C44.5647 22.4523 44.482 22.6383 44.3167 22.783C44.172 22.9277 43.9963 23 43.7896 23H39.8836C39.677 23 39.491 22.9277 39.3256 22.783C39.181 22.6383 39.1087 22.4523 39.1087 22.225V13.762C39.1087 12.7907 38.871 12.0467 38.3956 11.53C37.941 10.9927 37.259 10.724 36.3496 10.724C35.5023 10.724 34.8203 10.9927 34.3036 11.53C33.8077 12.0467 33.5596 12.7907 33.5596 13.762V22.225C33.5596 22.4523 33.477 22.6383 33.3116 22.783C33.167 22.9277 32.9913 23 32.7846 23H28.9096Z" fill="url(#paint2_linear_9_5)"/>
<path d="M55.9293 29.82C54.338 29.82 53.0153 29.6133 51.9613 29.2C50.928 28.7867 50.1013 28.2907 49.4813 27.712C48.882 27.1333 48.448 26.5547 48.1793 25.976C47.9106 25.418 47.766 24.9737 47.7453 24.643C47.7246 24.4157 47.797 24.2297 47.9623 24.085C48.1276 23.9403 48.324 23.868 48.5513 23.868H52.4883C52.6743 23.868 52.8293 23.9093 52.9533 23.992C53.098 24.0953 53.2116 24.2607 53.2943 24.488C53.3976 24.7153 53.532 24.953 53.6973 25.201C53.8833 25.449 54.1313 25.6453 54.4413 25.79C54.772 25.9553 55.2163 26.038 55.7743 26.038C56.3943 26.038 56.911 25.9347 57.3243 25.728C57.7376 25.542 58.0476 25.2217 58.2543 24.767C58.461 24.333 58.5643 23.744 58.5643 23V20.923C58.089 21.4397 57.4793 21.8633 56.7353 22.194C55.9913 22.504 55.0923 22.659 54.0383 22.659C52.9843 22.659 52.0543 22.504 51.2483 22.194C50.4423 21.884 49.7706 21.419 49.2333 20.799C48.696 20.179 48.2723 19.4247 47.9623 18.536C47.673 17.6473 47.4973 16.6243 47.4353 15.467C47.4146 14.9297 47.4146 14.3923 47.4353 13.855C47.4973 12.739 47.673 11.7367 47.9623 10.848C48.2516 9.95933 48.665 9.19466 49.2023 8.554C49.7603 7.91333 50.4423 7.42766 51.2483 7.097C52.0543 6.74566 52.9843 6.57 54.0383 6.57C55.1543 6.57 56.105 6.787 56.8903 7.221C57.6963 7.63433 58.3576 8.16133 58.8743 8.802V7.655C58.8743 7.44833 58.9466 7.27266 59.0913 7.128C59.236 6.96266 59.422 6.88 59.6493 6.88H63.2143C63.4416 6.88 63.6276 6.96266 63.7723 7.128C63.9376 7.27266 64.0203 7.44833 64.0203 7.655V22.566C64.0203 24.1367 63.7 25.4593 63.0593 26.534C62.4186 27.6087 61.499 28.425 60.3003 28.983C59.1016 29.541 57.6446 29.82 55.9293 29.82ZM55.7123 18.629C56.3736 18.629 56.911 18.4843 57.3243 18.195C57.7376 17.9057 58.0373 17.5337 58.2233 17.079C58.43 16.6243 58.5436 16.1387 58.5643 15.622C58.585 15.3947 58.5953 15.0743 58.5953 14.661C58.5953 14.2477 58.585 13.9377 58.5643 13.731C58.5436 13.1937 58.43 12.6977 58.2233 12.243C58.0373 11.7883 57.7376 11.4267 57.3243 11.158C56.911 10.8687 56.3736 10.724 55.7123 10.724C55.0303 10.724 54.4826 10.8687 54.0693 11.158C53.6766 11.4473 53.3873 11.84 53.2013 12.336C53.036 12.832 52.9326 13.3797 52.8913 13.979C52.8706 14.4337 52.8706 14.8987 52.8913 15.374C52.9326 15.9733 53.036 16.521 53.2013 17.017C53.3873 17.513 53.6766 17.9057 54.0693 18.195C54.4826 18.4843 55.0303 18.629 55.7123 18.629Z" fill="url(#paint3_linear_9_5)"/>
<path d="M73.5928 23.31C72.4148 23.31 71.3608 23.0413 70.4308 22.504C69.5214 21.9667 68.8084 21.1813 68.2918 20.148C67.7751 19.094 67.5168 17.8127 67.5168 16.304V7.655C67.5168 7.42766 67.5891 7.24166 67.7338 7.097C67.8784 6.95233 68.0644 6.88 68.2918 6.88H72.1668C72.3941 6.88 72.5801 6.95233 72.7248 7.097C72.8694 7.24166 72.9418 7.42766 72.9418 7.655V16.118C72.9418 18.1433 73.8511 19.156 75.6698 19.156C76.5171 19.156 77.1888 18.8977 77.6848 18.381C78.2014 17.8437 78.4598 17.0893 78.4598 16.118V7.655C78.4598 7.42766 78.5321 7.24166 78.6768 7.097C78.8214 6.95233 79.0074 6.88 79.2348 6.88H83.1098C83.3371 6.88 83.5231 6.95233 83.6678 7.097C83.8124 7.24166 83.8848 7.42766 83.8848 7.655V22.225C83.8848 22.4523 83.8124 22.6383 83.6678 22.783C83.5231 22.9277 83.3371 23 83.1098 23H79.5138C79.3071 23 79.1211 22.9277 78.9558 22.783C78.8111 22.6383 78.7388 22.4523 78.7388 22.225V21.047C78.2014 21.791 77.4988 22.3593 76.6308 22.752C75.7834 23.124 74.7708 23.31 73.5928 23.31Z" fill="url(#paint4_linear_9_5)"/>
<path d="M92.3671 23.31C91.2511 23.31 90.2488 23.1033 89.3601 22.69C88.4921 22.256 87.7998 21.6773 87.2831 20.954C86.7665 20.2307 86.5081 19.4143 86.5081 18.505C86.5081 17.0377 87.1075 15.8803 88.3061 15.033C89.5048 14.165 91.0961 13.576 93.0801 13.266L96.9551 12.677V12.243C96.9551 11.499 96.8001 10.9307 96.4901 10.538C96.1801 10.1453 95.6118 9.949 94.7851 9.949C94.2065 9.949 93.7311 10.0627 93.3591 10.29C93.0078 10.5173 92.7288 10.8273 92.5221 11.22C92.3361 11.4887 92.0778 11.623 91.7471 11.623H88.2751C88.0478 11.623 87.8721 11.561 87.7481 11.437C87.6241 11.2923 87.5725 11.127 87.5931 10.941C87.5931 10.569 87.7275 10.1453 87.9961 9.67C88.2855 9.174 88.7195 8.68833 89.2981 8.213C89.8768 7.73766 90.6208 7.345 91.5301 7.035C92.4395 6.725 93.5348 6.57 94.8161 6.57C96.1595 6.57 97.3065 6.725 98.2571 7.035C99.2078 7.345 99.9725 7.779 100.551 8.337C101.15 8.895 101.595 9.55633 101.884 10.321C102.173 11.065 102.318 11.8917 102.318 12.801V22.225C102.318 22.4523 102.235 22.6383 102.07 22.783C101.925 22.9277 101.75 23 101.543 23H97.9471C97.7198 23 97.5338 22.9277 97.3891 22.783C97.2445 22.6383 97.1721 22.4523 97.1721 22.225V21.14C96.9035 21.5327 96.5418 21.8943 96.0871 22.225C95.6325 22.5557 95.0951 22.814 94.4751 23C93.8758 23.2067 93.1731 23.31 92.3671 23.31ZM93.8241 19.776C94.4235 19.776 94.9608 19.652 95.4361 19.404C95.9321 19.1353 96.3145 18.7323 96.5831 18.195C96.8725 17.637 97.0171 16.9447 97.0171 16.118V15.684L94.3821 16.149C93.4108 16.3143 92.6978 16.5727 92.2431 16.924C91.8091 17.2547 91.5921 17.6473 91.5921 18.102C91.5921 18.4533 91.6955 18.753 91.9021 19.001C92.1088 19.249 92.3775 19.4453 92.7081 19.59C93.0388 19.714 93.4108 19.776 93.8241 19.776Z" fill="url(#paint5_linear_9_5)"/>
<path d="M109.042 23C108.815 23 108.629 22.9277 108.484 22.783C108.34 22.6383 108.267 22.4523 108.267 22.225V6.167H102.749C102.522 6.167 102.336 6.09466 102.191 5.95C102.047 5.78466 101.974 5.59866 101.974 5.392V2.075C101.974 1.84766 102.047 1.66166 102.191 1.517C102.336 1.37233 102.522 1.29999 102.749 1.29999H119.427C119.655 1.29999 119.841 1.37233 119.985 1.517C120.13 1.66166 120.202 1.84766 120.202 2.075V5.392C120.202 5.59866 120.13 5.78466 119.985 5.95C119.841 6.09466 119.655 6.167 119.427 6.167H113.909V22.225C113.909 22.4523 113.837 22.6383 113.692 22.783C113.548 22.9277 113.362 23 113.134 23H109.042Z" fill="url(#paint6_linear_9_5)"/>
<path d="M127.394 23.31C124.955 23.31 123.013 22.6487 121.566 21.326C120.119 20.0033 119.365 18.04 119.303 15.436C119.303 15.2913 119.303 15.1053 119.303 14.878C119.303 14.6507 119.303 14.475 119.303 14.351C119.365 12.7183 119.727 11.3233 120.388 10.166C121.07 8.988 122 8.09933 123.178 7.5C124.377 6.88 125.772 6.57 127.363 6.57C129.182 6.57 130.68 6.93166 131.858 7.655C133.057 8.37833 133.956 9.36 134.555 10.6C135.154 11.84 135.454 13.2557 135.454 14.847V15.591C135.454 15.8183 135.371 16.0043 135.206 16.149C135.061 16.2937 134.886 16.366 134.679 16.366H124.759C124.759 16.3867 124.759 16.4177 124.759 16.459C124.759 16.5003 124.759 16.5417 124.759 16.583C124.78 17.1823 124.883 17.73 125.069 18.226C125.255 18.722 125.544 19.1147 125.937 19.404C126.33 19.6933 126.805 19.838 127.363 19.838C127.776 19.838 128.117 19.776 128.386 19.652C128.675 19.5073 128.913 19.3523 129.099 19.187C129.285 19.001 129.43 18.846 129.533 18.722C129.719 18.5153 129.864 18.3913 129.967 18.35C130.091 18.288 130.277 18.257 130.525 18.257H134.369C134.576 18.257 134.741 18.319 134.865 18.443C135.01 18.5463 135.072 18.7013 135.051 18.908C135.03 19.2593 134.855 19.683 134.524 20.179C134.193 20.675 133.708 21.171 133.067 21.667C132.447 22.1423 131.662 22.535 130.711 22.845C129.76 23.155 128.655 23.31 127.394 23.31ZM124.759 13.297H129.998V13.235C129.998 12.5737 129.895 11.995 129.688 11.499C129.502 11.003 129.202 10.6207 128.789 10.352C128.396 10.0833 127.921 9.949 127.363 9.949C126.805 9.949 126.33 10.0833 125.937 10.352C125.565 10.6207 125.276 11.003 125.069 11.499C124.862 11.995 124.759 12.5737 124.759 13.235V13.297Z" fill="url(#paint7_linear_9_5)"/>
<path d="M145.769 23.31C144.24 23.31 142.886 23.031 141.708 22.473C140.53 21.915 139.59 21.109 138.887 20.055C138.205 18.9803 137.833 17.699 137.771 16.211C137.751 15.8803 137.74 15.467 137.74 14.971C137.74 14.4543 137.751 14.0307 137.771 13.7C137.833 12.1913 138.205 10.91 138.887 9.856C139.569 8.78133 140.499 7.965 141.677 7.407C142.876 6.849 144.24 6.57 145.769 6.57C147.195 6.57 148.415 6.77666 149.427 7.19C150.44 7.58266 151.267 8.07866 151.907 8.678C152.548 9.27733 153.023 9.89733 153.333 10.538C153.664 11.158 153.84 11.7057 153.86 12.181C153.881 12.3877 153.809 12.5737 153.643 12.739C153.478 12.8837 153.292 12.956 153.085 12.956H149.148C148.921 12.956 148.745 12.9043 148.621 12.801C148.497 12.6977 148.384 12.5427 148.28 12.336C148.032 11.6953 147.712 11.2407 147.319 10.972C146.947 10.7033 146.462 10.569 145.862 10.569C145.036 10.569 144.395 10.8377 143.94 11.375C143.506 11.9123 143.269 12.739 143.227 13.855C143.207 14.6817 143.207 15.4153 143.227 16.056C143.269 17.1927 143.506 18.0193 143.94 18.536C144.395 19.0527 145.036 19.311 145.862 19.311C146.503 19.311 147.009 19.1767 147.381 18.908C147.753 18.6393 148.053 18.1847 148.28 17.544C148.384 17.3373 148.497 17.1823 148.621 17.079C148.745 16.9757 148.921 16.924 149.148 16.924H153.085C153.292 16.924 153.478 17.0067 153.643 17.172C153.809 17.3167 153.881 17.4923 153.86 17.699C153.84 18.0503 153.736 18.4637 153.55 18.939C153.364 19.3937 153.075 19.8793 152.682 20.396C152.29 20.9127 151.773 21.3983 151.132 21.853C150.512 22.287 149.758 22.6383 148.869 22.907C147.981 23.1757 146.947 23.31 145.769 23.31Z" fill="url(#paint8_linear_9_5)"/>
<path d="M157.42 23C157.193 23 157.007 22.9277 156.862 22.783C156.718 22.6383 156.645 22.4523 156.645 22.225V1.76499C156.645 1.53766 156.718 1.35166 156.862 1.207C157.007 1.06233 157.193 0.989995 157.42 0.989995H161.388C161.616 0.989995 161.802 1.06233 161.946 1.207C162.091 1.35166 162.163 1.53766 162.163 1.76499V8.678C162.721 8.03733 163.403 7.531 164.209 7.159C165.036 6.76633 165.987 6.57 167.061 6.57C168.26 6.57 169.324 6.83866 170.254 7.376C171.205 7.91333 171.949 8.709 172.486 9.763C173.024 10.7963 173.292 12.0673 173.292 13.576V22.225C173.292 22.4523 173.22 22.6383 173.075 22.783C172.931 22.9277 172.745 23 172.517 23H168.518C168.312 23 168.126 22.9277 167.96 22.783C167.816 22.6383 167.743 22.4523 167.743 22.225V13.762C167.743 12.7907 167.506 12.0467 167.03 11.53C166.576 10.9927 165.894 10.724 164.984 10.724C164.137 10.724 163.455 10.9927 162.938 11.53C162.422 12.0467 162.163 12.7907 162.163 13.762V22.225C162.163 22.4523 162.091 22.6383 161.946 22.783C161.802 22.9277 161.616 23 161.388 23H157.42Z" fill="url(#paint9_linear_9_5)"/>
<defs>
<linearGradient id="paint0_linear_9_5" x1="3.88254e-09" y1="15" x2="173" y2="15" gradientUnits="userSpaceOnUse">
<stop stop-color="#41A8BF"/>
<stop offset="0.494792" stop-color="#A044C1"/>
<stop offset="1" stop-color="#6F1FBF"/>
</linearGradient>
<linearGradient id="paint1_linear_9_5" x1="3.88254e-09" y1="15" x2="173" y2="15" gradientUnits="userSpaceOnUse">
<stop stop-color="#41A8BF"/>
<stop offset="0.494792" stop-color="#A044C1"/>
<stop offset="1" stop-color="#6F1FBF"/>
</linearGradient>
<linearGradient id="paint2_linear_9_5" x1="3.88254e-09" y1="15" x2="173" y2="15" gradientUnits="userSpaceOnUse">
<stop stop-color="#41A8BF"/>
<stop offset="0.494792" stop-color="#A044C1"/>
<stop offset="1" stop-color="#6F1FBF"/>
</linearGradient>
<linearGradient id="paint3_linear_9_5" x1="3.88254e-09" y1="15" x2="173" y2="15" gradientUnits="userSpaceOnUse">
<stop stop-color="#41A8BF"/>
<stop offset="0.494792" stop-color="#A044C1"/>
<stop offset="1" stop-color="#6F1FBF"/>
</linearGradient>
<linearGradient id="paint4_linear_9_5" x1="3.88254e-09" y1="15" x2="173" y2="15" gradientUnits="userSpaceOnUse">
<stop stop-color="#41A8BF"/>
<stop offset="0.494792" stop-color="#A044C1"/>
<stop offset="1" stop-color="#6F1FBF"/>
</linearGradient>
<linearGradient id="paint5_linear_9_5" x1="3.88254e-09" y1="15" x2="173" y2="15" gradientUnits="userSpaceOnUse">
<stop stop-color="#41A8BF"/>
<stop offset="0.494792" stop-color="#A044C1"/>
<stop offset="1" stop-color="#6F1FBF"/>
</linearGradient>
<linearGradient id="paint6_linear_9_5" x1="3.88254e-09" y1="15" x2="173" y2="15" gradientUnits="userSpaceOnUse">
<stop stop-color="#41A8BF"/>
<stop offset="0.494792" stop-color="#A044C1"/>
<stop offset="1" stop-color="#6F1FBF"/>
</linearGradient>
<linearGradient id="paint7_linear_9_5" x1="3.88254e-09" y1="15" x2="173" y2="15" gradientUnits="userSpaceOnUse">
<stop stop-color="#41A8BF"/>
<stop offset="0.494792" stop-color="#A044C1"/>
<stop offset="1" stop-color="#6F1FBF"/>
</linearGradient>
<linearGradient id="paint8_linear_9_5" x1="3.88254e-09" y1="15" x2="173" y2="15" gradientUnits="userSpaceOnUse">
<stop stop-color="#41A8BF"/>
<stop offset="0.494792" stop-color="#A044C1"/>
<stop offset="1" stop-color="#6F1FBF"/>
</linearGradient>
<linearGradient id="paint9_linear_9_5" x1="3.88254e-09" y1="15" x2="173" y2="15" gradientUnits="userSpaceOnUse">
<stop stop-color="#41A8BF"/>
<stop offset="0.494792" stop-color="#A044C1"/>
<stop offset="1" stop-color="#6F1FBF"/>
</linearGradient>
</defs>
</svg>
